<svg width="620" height="517" viewBox="0 0 620 517" fill="none" xmlns="http://www.w3.org/2000/svg">
<path d="M70.4999 21.5C138.1 -32.1 219.333 28.8333 251.5 66C291 111.64 291 148 291 206C291 279.289 348 319 390 296.5C432 274 499 281.5 578.5 330C658 378.5 614.5 490 511.5 441.5C408.5 393 410 481 263.5 511C117 541 107.5 450 126 394.5C144.5 339 92.4999 268 36.9999 206C-18.5001 144 -14.0001 88.5 70.4999 21.5Z" fill="url(#paint0_linear)"/>
<defs>
<linearGradient id="paint0_linear" x1="619.505" y1="0.377365" x2="0.66288" y2="0.377365" gradientUnits="userSpaceOnUse">
<stop stop-color="#B6E953"/>
<stop offset="1" stop-color="#59CAFF"/>
</linearGradient>
</defs>
</svg>
